<?xml version="1.0" encoding="UTF-8" standalone="no"?><svg xmlns="http://www.w3.org/2000/svg" xmlns:xlink="http://www.w3.org/1999/xlink" style="isolation:isolate" viewBox="141.287879 236.575758 360.606061 590.424263"><g><path d=" M 160 416.75 C 163.515 327.823 232.254 255.5 321.25 255.5 C 410.246 255.5 478.5 327 482.5 416.75 Q 484.144 453.643 322.5 742.5 Q 157.5 480 160 416.75 Z " fill="rgb(78,70,220)"/><path d=" M 192.5 549 C 167.459 518.037 141.288 459.764 141.288 416.879 C 141.288 317.367 222.079 236.576 321.591 236.576 C 421.103 236.576 501.894 317.367 501.894 416.879 C 501.894 462.377 475.841 517.299 452.5 547 Q 338.841 711.299 321.591 827 Q 296.667 692.865 192.5 549 Z  M 321.6 724.57 C 319.92 720.12 318.18 715.68 316.4 711.26 C 313.86 704.95 311.22 698.68 308.49 692.46 C 305.67 686.02 302.75 679.63 299.74 673.28 C 297.46 668.48 295.13 663.69 292.74 658.94 C 290.3 654.05 287.8 649.2 285.25 644.37 C 283.32 640.71 281.37 637.07 279.38 633.44 C 277.36 629.74 275.3 626.05 273.22 622.38 C 264.8 607.54 255.96 592.95 246.7 578.63 C 236.47 562.8 225.81 547.24 214.74 531.98 C 211.79 528.34 209.01 524.56 206.41 520.66 C 203.53 516.36 200.82 511.97 198.28 507.49 C 192.66 497.62 187.71 487.39 183.44 476.87 C 181.27 471.54 179.29 466.13 177.5 460.66 C 175.78 455.41 174.28 450.1 173 444.74 C 171.82 439.82 170.88 434.84 170.21 429.82 C 169.61 425.51 169.31 421.17 169.29 416.81 C 169.29 406.52 170.32 396.26 172.39 386.17 C 174.39 376.39 177.36 366.84 181.25 357.65 C 188.92 339.55 200.01 323.1 213.92 309.21 C 227.81 295.3 244.26 284.21 262.36 276.54 C 271.55 272.65 281.11 269.68 290.89 267.67 C 300.99 265.61 311.28 264.57 321.59 264.58 C 331.9 264.57 342.19 265.61 352.3 267.67 C 362.08 269.68 371.63 272.65 380.82 276.54 C 398.92 284.21 415.37 295.3 429.26 309.21 C 443.17 323.1 454.26 339.55 461.93 357.65 C 465.82 366.84 468.79 376.39 470.8 386.17 C 472.86 396.26 473.9 406.53 473.89 416.83 C 473.88 421.46 473.57 426.09 472.97 430.69 C 472.3 435.77 471.38 440.82 470.2 445.81 C 468.96 451.11 467.49 456.36 465.8 461.53 C 464.07 466.85 462.14 472.11 460.02 477.29 C 455.91 487.39 451.14 497.2 445.73 506.68 C 443.29 510.97 440.71 515.17 437.98 519.29 C 435.46 523.09 432.79 526.79 429.96 530.36 C 412 556.3 394.91 582.83 378.73 609.92 C 365.92 631.38 354.01 653.37 343.05 675.84 C 335.26 691.8 328.11 708.05 321.6 724.57 Z " fill-rule="evenodd" fill="rgb(0,0,0)"/><path d=" M 256.591 408 C 256.591 372.126 285.716 343 321.591 343 C 357.465 343 386.591 372.126 386.591 408 C 386.591 443.874 357.465 473 321.591 473 C 285.716 473 256.591 443.874 256.591 408 Z " fill="rgb(0,0,0)"/></g></svg>