<?xml version="1.0" encoding="UTF-8" standalone="no"?><svg xmlns="http://www.w3.org/2000/svg" xmlns:xlink="http://www.w3.org/1999/xlink" style="isolation:isolate" viewBox="541.287872 236.575745 360.606049 590.424255"><g><path d=" M 562 416.75 C 565.515 327.823 634.254 255.5 723.25 255.5 C 812.246 255.5 880.5 327 884.5 416.75 Q 886.144 453.643 724.5 742.5 Q 559.5 480 562 416.75 Z " fill="rgb(120,225,91)"/><path d=" M 592.5 549 C 567.459 518.037 541.288 459.764 541.288 416.879 C 541.288 317.367 622.079 236.576 721.591 236.576 C 821.103 236.576 901.894 317.367 901.894 416.879 C 901.894 462.377 875.841 517.299 852.5 547 Q 738.841 711.299 721.591 827 Q 696.667 692.865 592.5 549 Z  M 721.6 724.57 C 719.92 720.12 718.18 715.68 716.4 711.26 C 713.86 704.95 711.22 698.68 708.49 692.46 C 705.67 686.02 702.75 679.63 699.74 673.28 C 697.46 668.48 695.13 663.69 692.74 658.94 C 690.3 654.05 687.8 649.2 685.25 644.37 C 683.32 640.71 681.37 637.07 679.38 633.44 C 677.36 629.74 675.3 626.05 673.22 622.38 C 664.8 607.54 655.96 592.95 646.7 578.63 C 636.47 562.8 625.81 547.24 614.74 531.98 C 611.79 528.34 609.01 524.56 606.41 520.66 C 603.53 516.36 600.82 511.97 598.28 507.49 C 592.66 497.62 587.71 487.39 583.44 476.87 C 581.27 471.54 579.29 466.13 577.5 460.66 C 575.78 455.41 574.28 450.1 573 444.74 C 571.82 439.82 570.88 434.84 570.21 429.82 C 569.61 425.51 569.31 421.17 569.29 416.81 C 569.29 406.52 570.32 396.26 572.39 386.17 C 574.39 376.39 577.36 366.84 581.25 357.65 C 588.92 339.55 600.01 323.1 613.92 309.21 C 627.81 295.3 644.26 284.21 662.36 276.54 C 671.55 272.65 681.11 269.68 690.89 267.67 C 700.99 265.61 711.28 264.57 721.59 264.58 C 731.9 264.57 742.19 265.61 752.3 267.67 C 762.08 269.68 771.63 272.65 780.82 276.54 C 798.92 284.21 815.37 295.3 829.26 309.21 C 843.17 323.1 854.26 339.55 861.93 357.65 C 865.82 366.84 868.79 376.39 870.8 386.17 C 872.86 396.26 873.9 406.53 873.89 416.83 C 873.88 421.46 873.57 426.09 872.97 430.69 C 872.3 435.77 871.38 440.82 870.2 445.81 C 868.96 451.11 867.49 456.36 865.8 461.53 C 864.07 466.85 862.14 472.11 860.02 477.29 C 855.91 487.39 851.14 497.2 845.73 506.68 C 843.29 510.97 840.71 515.17 837.98 519.29 C 835.46 523.09 832.79 526.79 829.96 530.36 C 812 556.3 794.91 582.83 778.73 609.92 C 765.92 631.38 754.01 653.37 743.05 675.84 C 735.26 691.8 728.11 708.05 721.6 724.57 Z " fill-rule="evenodd" fill="rgb(0,0,0)"/><path d=" M 656.591 408 C 656.591 372.126 685.716 343 721.591 343 C 757.465 343 786.591 372.126 786.591 408 C 786.591 443.874 757.465 473 721.591 473 C 685.716 473 656.591 443.874 656.591 408 Z " fill="rgb(0,0,0)"/></g></svg>